<svg viewBox="0,0,950,400" width="800" height="300" xmlns="http://www.w3.org/2000/svg" xmlns:xlink="http://www.w3.org/1999/xlink"><text y="14">N = 54</text><g transform="translate(50, 50)"><g class="x axis" transform="translate(0,300)" fill="none" font-size="10" font-family="sans-serif" text-anchor="middle"><path class="domain" stroke="currentColor" d="M0.5,6V0.5H400.5V6"/><g class="tick" opacity="1" transform="translate(0.5,0)"><line stroke="currentColor" y2="6"/><text fill="currentColor" y="9" dy="0.71em">0.0</text></g><g class="tick" opacity="1" transform="translate(40.5,0)"><line stroke="currentColor" y2="6"/><text fill="currentColor" y="9" dy="0.71em">0.1</text></g><g class="tick" opacity="1" transform="translate(80.5,0)"><line stroke="currentColor" y2="6"/><text fill="currentColor" y="9" dy="0.71em">0.2</text></g><g class="tick" opacity="1" transform="translate(120.5,0)"><line stroke="currentColor" y2="6"/><text fill="currentColor" y="9" dy="0.71em">0.3</text></g><g class="tick" opacity="1" transform="translate(160.5,0)"><line stroke="currentColor" y2="6"/><text fill="currentColor" y="9" dy="0.71em">0.4</text></g><g class="tick" opacity="1" transform="translate(200.5,0)"><line stroke="currentColor" y2="6"/><text fill="currentColor" y="9" dy="0.71em">0.5</text></g><g class="tick" opacity="1" transform="translate(240.5,0)"><line stroke="currentColor" y2="6"/><text fill="currentColor" y="9" dy="0.71em">0.6</text></g><g class="tick" opacity="1" transform="translate(280.5,0)"><line stroke="currentColor" y2="6"/><text fill="currentColor" y="9" dy="0.71em">0.7</text></g><g class="tick" opacity="1" transform="translate(320.5,0)"><line stroke="currentColor" y2="6"/><text fill="currentColor" y="9" dy="0.71em">0.8</text></g><g class="tick" opacity="1" transform="translate(360.5,0)"><line stroke="currentColor" y2="6"/><text fill="currentColor" y="9" dy="0.71em">0.9</text></g><g class="tick" opacity="1" transform="translate(400.5,0)"><line stroke="currentColor" y2="6"/><text fill="currentColor" y="9" dy="0.71em">1.0</text></g></g><g class="y axis" fill="none" font-size="10" font-family="sans-serif" text-anchor="end"><path class="domain" stroke="currentColor" d="M-6,300.5H0.5V0.5H-6"/><g class="tick" opacity="1" transform="translate(0,300.5)"><line stroke="currentColor" x2="-6"/><text fill="currentColor" x="-9" dy="0.32em">0.0</text></g><g class="tick" opacity="1" transform="translate(0,270.5)"><line stroke="currentColor" x2="-6"/><text fill="currentColor" x="-9" dy="0.32em">0.1</text></g><g class="tick" opacity="1" transform="translate(0,240.5)"><line stroke="currentColor" x2="-6"/><text fill="currentColor" x="-9" dy="0.32em">0.2</text></g><g class="tick" opacity="1" transform="translate(0,210.5)"><line stroke="currentColor" x2="-6"/><text fill="currentColor" x="-9" dy="0.32em">0.3</text></g><g class="tick" opacity="1" transform="translate(0,180.5)"><line stroke="currentColor" x2="-6"/><text fill="currentColor" x="-9" dy="0.32em">0.4</text></g><g class="tick" opacity="1" transform="translate(0,150.5)"><line stroke="currentColor" x2="-6"/><text fill="currentColor" x="-9" dy="0.32em">0.5</text></g><g class="tick" opacity="1" transform="translate(0,120.5)"><line stroke="currentColor" x2="-6"/><text fill="currentColor" x="-9" dy="0.32em">0.6</text></g><g class="tick" opacity="1" transform="translate(0,90.50000000000001)"><line stroke="currentColor" x2="-6"/><text fill="currentColor" x="-9" dy="0.32em">0.7</text></g><g class="tick" opacity="1" transform="translate(0,60.499999999999986)"><line stroke="currentColor" x2="-6"/><text fill="currentColor" x="-9" dy="0.32em">0.8</text></g><g class="tick" opacity="1" transform="translate(0,30.499999999999993)"><line stroke="currentColor" x2="-6"/><text fill="currentColor" x="-9" dy="0.32em">0.9</text></g><g class="tick" opacity="1" transform="translate(0,0.5)"><line stroke="currentColor" x2="-6"/><text fill="currentColor" x="-9" dy="0.32em">1.0</text></g></g><circle cx="292.7155050808526" cy="288.274723242266" r="4" style="opacity: 0.25;"/><circle cx="86.09674094305007" cy="127.0640844662712" r="4" style="opacity: 0.25;"/><circle cx="370.9961075278688" cy="264.1533359249474" r="4" style="opacity: 0.25;"/><circle cx="203.52594585209332" cy="240.29797267000563" r="4" style="opacity: 0.25;"/><circle cx="200.5166621699275" cy="168.7465395803078" r="4" style="opacity: 0.25;"/><circle cx="176.47254479042206" cy="51.75169140757436" r="4" style="opacity: 0.25;"/><circle cx="134.89136499347555" cy="147.95587003628322" r="4" style="opacity: 0.25;"/><circle cx="312.8051340314415" cy="62.7026612019824" r="4" style="opacity: 0.25;"/><circle cx="4.239988508345949" cy="243.31444605365982" r="4" style="opacity: 0.25;"/><circle cx="184.55149027684" cy="277.66766548584434" r="4" style="opacity: 0.25;"/><circle cx="296.5634749960347" cy="133.08115741067596" r="4" style="opacity: 0.25;"/><circle cx="121.19972672247448" cy="10.574476463490857" r="4" style="opacity: 0.25;"/><circle cx="259.0664920670324" cy="184.4158103339961" r="4" style="opacity: 0.25;"/><circle cx="199.33460820333408" cy="161.22309853702052" r="4" style="opacity: 0.25;"/><circle cx="236.4410219108506" cy="293.0481471843821" r="4" style="opacity: 0.25;"/><circle cx="88.05994475779757" cy="283.8899228885548" r="4" style="opacity: 0.25;"/><circle cx="51.195434695705" cy="231.92084700898945" r="4" style="opacity: 0.25;"/><circle cx="161.41498043868293" cy="47.9886338551109" r="4" style="opacity: 0.25;"/><circle cx="320.6814999682564" cy="109.11992590555779" r="4" style="opacity: 0.25;"/><circle cx="290.9146230561074" cy="287.16133578324155" r="4" style="opacity: 0.25;"/><circle cx="236.28712443370904" cy="50.43703486854507" r="4" style="opacity: 0.25;"/><circle cx="45.5655274721769" cy="10.235908820067042" r="4" style="opacity: 0.25;"/><circle cx="161.83631680445617" cy="12.090561516666632" r="4" style="opacity: 0.25;"/><circle cx="125.84780505215872" cy="190.16264780176283" r="4" style="opacity: 0.25;"/><circle cx="357.63277594394697" cy="211.0077399774284" r="4" style="opacity: 0.25;"/><circle cx="244.12442207041573" cy="181.27596268773846" r="4" style="opacity: 0.25;"/><circle cx="251.90297817263473" cy="133.8457600645001" r="4" style="opacity: 0.25;"/><circle cx="392.2888204336852" cy="205.7814305542448" r="4" style="opacity: 0.25;"/><circle cx="23.43257172733786" cy="53.607074612173776" r="4" style="opacity: 0.25;"/><circle cx="194.59746483834542" cy="40.15154417624611" r="4" style="opacity: 0.25;"/><circle cx="21.54301051036871" cy="90.72581340356027" r="4" style="opacity: 0.25;"/><circle cx="276.7911461124356" cy="30.182830212478517" r="4" style="opacity: 0.25;"/><circle cx="85.76390183927352" cy="45.101307513548925" r="4" style="opacity: 0.25;"/><circle cx="307.73597575314113" cy="86.47382250919351" r="4" style="opacity: 0.25;"/><circle cx="359.2474742194707" cy="124.59555476210342" r="4" style="opacity: 0.25;"/><circle cx="364.5605372432941" cy="267.4516295230571" r="4" style="opacity: 0.25;"/><circle cx="237.9537781452779" cy="105.65156401192932" r="4" style="opacity: 0.25;"/><circle cx="309.327600973795" cy="94.6560212734596" r="4" style="opacity: 0.25;"/><circle cx="200.74586471905303" cy="29.705901550966708" r="4" style="opacity: 0.25;"/><circle cx="317.8102816881968" cy="5.089121906544092" r="4" style="opacity: 0.25;"/><circle cx="174.42714561217957" cy="276.16358394314483" r="4" style="opacity: 0.25;"/><circle cx="87.9987365832072" cy="92.7070994541253" r="4" style="opacity: 0.25;"/><circle cx="27.209215212374627" cy="55.05421973395352" r="4" style="opacity: 0.25;"/><circle cx="339.0572593689566" cy="70.41439571277081" r="4" style="opacity: 0.25;"/><circle cx="69.24763755458923" cy="239.53968786835654" r="4" style="opacity: 0.25;"/><circle cx="313.74930572558685" cy="6.859338074746835" r="4" style="opacity: 0.25;"/><circle cx="175.00315958876735" cy="70.7811967836326" r="4" style="opacity: 0.25;"/><circle cx="37.796850309861355" cy="247.17141758788102" r="4" style="opacity: 0.25;"/><circle cx="298.5572595554549" cy="102.34693661110536" r="4" style="opacity: 0.25;"/><circle cx="239.05637548638063" cy="180.38433777104547" r="4" style="opacity: 0.25;"/><circle cx="6.435917866852936" cy="96.83633530696963" r="4" style="opacity: 0.25;"/><circle cx="363.0909087392592" cy="210.36980022843966" r="4" style="opacity: 0.25;"/><circle cx="381.74673622553473" cy="244.88344465205566" r="4" style="opacity: 0.25;"/><circle cx="157.50330678728605" cy="71.81301580432648" r="4" style="opacity: 0.25;"/></g><g transform="translate(550, 50)"><rect x="1" width="19" y="133.33333333333331" height="166.66666666666669"/><rect x="21" width="19" y="66.66666666666666" height="233.33333333333334"/><rect x="41" width="19" y="166.66666666666669" height="133.33333333333331"/><rect x="61" width="19" y="133.33333333333331" height="166.66666666666669"/><rect x="81" width="19" y="100.00000000000001" height="200"/><rect x="101" width="19" y="233.33333333333334" height="66.66666666666666"/><rect x="121" width="19" y="166.66666666666669" height="133.33333333333331"/><rect x="141" width="19" y="133.33333333333331" height="166.66666666666669"/><rect x="161" width="19" y="100.00000000000001" height="200"/><rect x="181" width="19" y="166.66666666666669" height="133.33333333333331"/><rect x="201" width="19.00000000000003" y="166.66666666666669" height="133.33333333333331"/><rect x="221.00000000000003" width="18.99999999999997" y="33.33333333333335" height="266.66666666666663"/><rect x="241" width="19" y="133.33333333333331" height="166.66666666666669"/><rect x="261" width="19" y="100.00000000000001" height="200"/><rect x="281" width="19" y="133.33333333333331" height="166.66666666666669"/><rect x="301" width="19" y="0" height="300"/><rect x="321" width="19" y="33.33333333333335" height="266.66666666666663"/><rect x="341" width="19" y="166.66666666666669" height="133.33333333333331"/><rect x="361" width="19" y="166.66666666666669" height="133.33333333333331"/><rect x="381" width="19" y="66.66666666666666" height="233.33333333333334"/><rect x="401" width="0" y="300" height="0"/><g class="x axis" transform="translate(0,300)" fill="none" font-size="10" font-family="sans-serif" text-anchor="middle"><path class="domain" stroke="currentColor" d="M0.5,6V0.5H400.5V6"/><g class="tick" opacity="1" transform="translate(0.5,0)"><line stroke="currentColor" y2="6"/><text fill="currentColor" y="9" dy="0.71em">0.0</text></g><g class="tick" opacity="1" transform="translate(40.5,0)"><line stroke="currentColor" y2="6"/><text fill="currentColor" y="9" dy="0.71em">0.1</text></g><g class="tick" opacity="1" transform="translate(80.5,0)"><line stroke="currentColor" y2="6"/><text fill="currentColor" y="9" dy="0.71em">0.2</text></g><g class="tick" opacity="1" transform="translate(120.5,0)"><line stroke="currentColor" y2="6"/><text fill="currentColor" y="9" dy="0.71em">0.3</text></g><g class="tick" opacity="1" transform="translate(160.5,0)"><line stroke="currentColor" y2="6"/><text fill="currentColor" y="9" dy="0.71em">0.4</text></g><g class="tick" opacity="1" transform="translate(200.5,0)"><line stroke="currentColor" y2="6"/><text fill="currentColor" y="9" dy="0.71em">0.5</text></g><g class="tick" opacity="1" transform="translate(240.5,0)"><line stroke="currentColor" y2="6"/><text fill="currentColor" y="9" dy="0.71em">0.6</text></g><g class="tick" opacity="1" transform="translate(280.5,0)"><line stroke="currentColor" y2="6"/><text fill="currentColor" y="9" dy="0.71em">0.7</text></g><g class="tick" opacity="1" transform="translate(320.5,0)"><line stroke="currentColor" y2="6"/><text fill="currentColor" y="9" dy="0.71em">0.8</text></g><g class="tick" opacity="1" transform="translate(360.5,0)"><line stroke="currentColor" y2="6"/><text fill="currentColor" y="9" dy="0.71em">0.9</text></g><g class="tick" opacity="1" transform="translate(400.5,0)"><line stroke="currentColor" y2="6"/><text fill="currentColor" y="9" dy="0.71em">1.0</text></g></g><g class="y axis" fill="none" font-size="10" font-family="sans-serif" text-anchor="end"><path class="domain" stroke="currentColor" d="M-6,300.5H0.5V0.5H-6"/><g class="tick" opacity="1" transform="translate(0,300.5)"><line stroke="currentColor" x2="-6"/><text fill="currentColor" x="-9" dy="0.32em">0</text></g><g class="tick" opacity="1" transform="translate(0,267.16666666666663)"><line stroke="currentColor" x2="-6"/><text fill="currentColor" x="-9" dy="0.32em">1</text></g><g class="tick" opacity="1" transform="translate(0,233.83333333333334)"><line stroke="currentColor" x2="-6"/><text fill="currentColor" x="-9" dy="0.32em">2</text></g><g class="tick" opacity="1" transform="translate(0,200.50000000000003)"><line stroke="currentColor" x2="-6"/><text fill="currentColor" x="-9" dy="0.32em">3</text></g><g class="tick" opacity="1" transform="translate(0,167.16666666666669)"><line stroke="currentColor" x2="-6"/><text fill="currentColor" x="-9" dy="0.32em">4</text></g><g class="tick" opacity="1" transform="translate(0,133.83333333333331)"><line stroke="currentColor" x2="-6"/><text fill="currentColor" x="-9" dy="0.32em">5</text></g><g class="tick" opacity="1" transform="translate(0,100.50000000000001)"><line stroke="currentColor" x2="-6"/><text fill="currentColor" x="-9" dy="0.32em">6</text></g><g class="tick" opacity="1" transform="translate(0,67.16666666666666)"><line stroke="currentColor" x2="-6"/><text fill="currentColor" x="-9" dy="0.32em">7</text></g><g class="tick" opacity="1" transform="translate(0,33.83333333333335)"><line stroke="currentColor" x2="-6"/><text fill="currentColor" x="-9" dy="0.32em">8</text></g><g class="tick" opacity="1" transform="translate(0,0.5)"><line stroke="currentColor" x2="-6"/><text fill="currentColor" x="-9" dy="0.32em">9</text></g></g></g></svg>